<svg id="visual" viewBox="0 0 900 600" width="900" height="600" xmlns="http://www.w3.org/2000/svg" xmlns:xlink="http://www.w3.org/1999/xlink" version="1.1"><rect x="0" y="0" width="900" height="600" fill="#ffffff"></rect><defs><linearGradient id="grad1_0" x1="33.3%" y1="0%" x2="100%" y2="100%"><stop offset="20%" stop-color="#d5f2fe" stop-opacity="1"></stop><stop offset="80%" stop-color="#d5f2fe" stop-opacity="1"></stop></linearGradient></defs><defs><linearGradient id="grad1_1" x1="33.3%" y1="0%" x2="100%" y2="100%"><stop offset="20%" stop-color="#d5f2fe" stop-opacity="1"></stop><stop offset="80%" stop-color="#ffffff" stop-opacity="1"></stop></linearGradient></defs><defs><linearGradient id="grad2_0" x1="0%" y1="0%" x2="66.7%" y2="100%"><stop offset="20%" stop-color="#d5f2fe" stop-opacity="1"></stop><stop offset="80%" stop-color="#d5f2fe" stop-opacity="1"></stop></linearGradient></defs><defs><linearGradient id="grad2_1" x1="0%" y1="0%" x2="66.7%" y2="100%"><stop offset="20%" stop-color="#ffffff" stop-opacity="1"></stop><stop offset="80%" stop-color="#d5f2fe" stop-opacity="1"></stop></linearGradient></defs><g transform="translate(900, 0)"><path d="M0 486.7C-47.1 460.3 -94.3 433.8 -132.3 407.1C-170.3 380.4 -199.1 353.4 -245.1 337.4C-291.1 321.3 -354.1 316 -393.8 286.1C-433.4 256.2 -449.7 201.7 -461.3 149.9C-472.9 98.1 -479.8 49 -486.7 0L0 0Z" fill="#eaf9ff"></path><path d="M0 243.4C-23.6 230.1 -47.1 216.9 -66.1 203.5C-85.1 190.2 -99.6 176.7 -122.6 168.7C-145.5 160.6 -177.1 158 -196.9 143.1C-216.7 128.1 -224.8 100.8 -230.6 74.9C-236.4 49 -239.9 24.5 -243.4 0L0 0Z" fill="#d5f2fe"></path></g><g transform="translate(0, 600)"><path d="M0 -486.7C42.5 -461.6 85 -436.5 139.1 -428C193.1 -419.5 258.7 -427.6 286.1 -393.8C313.5 -360 302.5 -284.4 330.9 -240.4C359.2 -196.4 426.8 -184.1 459.4 -149.3C491.9 -114.5 489.3 -57.2 486.7 0L0 0Z" fill="#eaf9ff"></path><path d="M0 -243.4C21.2 -230.8 42.5 -218.2 69.5 -214C96.6 -209.7 129.4 -213.8 143.1 -196.9C156.7 -180 151.3 -142.2 165.4 -120.2C179.6 -98.2 213.4 -92 229.7 -74.6C245.9 -57.2 244.7 -28.6 243.4 0L0 0Z" fill="#d5f2fe"></path></g></svg>