<svg id="visual" viewBox="0 0 900 600" width="900" height="600" xmlns="http://www.w3.org/2000/svg" xmlns:xlink="http://www.w3.org/1999/xlink" version="1.1"><rect x="0" y="0" width="900" height="600" fill="#ffffff"></rect><defs><linearGradient id="grad1_0" x1="33.3%" y1="0%" x2="100%" y2="100%"><stop offset="20%" stop-color="#bfbdf6" stop-opacity="1"></stop><stop offset="80%" stop-color="#bfbdf6" stop-opacity="1"></stop></linearGradient></defs><defs><linearGradient id="grad1_1" x1="33.3%" y1="0%" x2="100%" y2="100%"><stop offset="20%" stop-color="#bfbdf6" stop-opacity="1"></stop><stop offset="80%" stop-color="#ffffff" stop-opacity="1"></stop></linearGradient></defs><defs><linearGradient id="grad2_0" x1="0%" y1="0%" x2="66.7%" y2="100%"><stop offset="20%" stop-color="#bfbdf6" stop-opacity="1"></stop><stop offset="80%" stop-color="#bfbdf6" stop-opacity="1"></stop></linearGradient></defs><defs><linearGradient id="grad2_1" x1="0%" y1="0%" x2="66.7%" y2="100%"><stop offset="20%" stop-color="#ffffff" stop-opacity="1"></stop><stop offset="80%" stop-color="#bfbdf6" stop-opacity="1"></stop></linearGradient></defs><g transform="translate(900, 0)"><path d="M0 432.7C-49.4 413 -98.7 393.4 -156.1 376.9C-213.5 360.5 -278.9 347.3 -305.9 305.9C-333 264.6 -321.6 195 -336.3 139.3C-351 83.6 -391.8 41.8 -432.7 0L0 0Z" fill="#e0defb"></path><path d="M0 216.3C-24.7 206.5 -49.4 196.7 -78.1 188.5C-106.8 180.3 -139.5 173.7 -153 153C-166.5 132.3 -160.8 97.5 -168.1 69.6C-175.5 41.8 -195.9 20.9 -216.3 0L0 0Z" fill="#bfbdf6"></path></g><g transform="translate(0, 600)"><path d="M0 -432.7C45.7 -395.9 91.4 -359.1 140.1 -338.1C188.7 -317.2 240.2 -312.2 287.1 -287.1C334 -262 376.2 -216.8 399.7 -165.6C423.2 -114.4 427.9 -57.2 432.7 0L0 0Z" fill="#e0defb"></path><path d="M0 -216.3C22.9 -197.9 45.7 -179.5 70 -169.1C94.3 -158.6 120.1 -156.1 143.5 -143.5C167 -131 188.1 -108.4 199.9 -82.8C211.6 -57.2 214 -28.6 216.3 0L0 0Z" fill="#bfbdf6"></path></g></svg>