<svg id="visual" viewBox="0 0 900 600" width="900" height="600" xmlns="http://www.w3.org/2000/svg" xmlns:xlink="http://www.w3.org/1999/xlink" version="1.1"><rect x="0" y="0" width="900" height="600" fill="#ffffff"></rect><defs><linearGradient id="grad1_0" x1="33.3%" y1="0%" x2="100%" y2="100%"><stop offset="20%" stop-color="#a4dade" stop-opacity="1"></stop><stop offset="80%" stop-color="#a4dade" stop-opacity="1"></stop></linearGradient></defs><defs><linearGradient id="grad1_1" x1="33.3%" y1="0%" x2="100%" y2="100%"><stop offset="20%" stop-color="#a4dade" stop-opacity="1"></stop><stop offset="80%" stop-color="#ffffff" stop-opacity="1"></stop></linearGradient></defs><defs><linearGradient id="grad2_0" x1="0%" y1="0%" x2="66.7%" y2="100%"><stop offset="20%" stop-color="#a4dade" stop-opacity="1"></stop><stop offset="80%" stop-color="#a4dade" stop-opacity="1"></stop></linearGradient></defs><defs><linearGradient id="grad2_1" x1="0%" y1="0%" x2="66.7%" y2="100%"><stop offset="20%" stop-color="#ffffff" stop-opacity="1"></stop><stop offset="80%" stop-color="#a4dade" stop-opacity="1"></stop></linearGradient></defs><g transform="translate(900, 0)"><path d="M0 432.7C-45.6 392.8 -91.2 353 -136.2 328.9C-181.3 304.8 -225.8 296.5 -273.7 273.7C-321.5 250.8 -372.7 213.6 -399.7 165.6C-426.8 117.6 -429.7 58.8 -432.7 0L0 0Z" fill="#d2edee"></path><path d="M0 216.3C-22.8 196.4 -45.6 176.5 -68.1 164.5C-90.6 152.4 -112.9 148.2 -136.8 136.8C-160.7 125.4 -186.3 106.8 -199.9 82.8C-213.4 58.8 -214.9 29.4 -216.3 0L0 0Z" fill="#a4dade"></path></g><g transform="translate(0, 600)"><path d="M0 -432.7C43.1 -384 86.2 -335.3 127.8 -308.6C169.4 -281.9 209.6 -277.2 259.5 -259.5C309.5 -241.8 369.2 -211 399.7 -165.6C430.2 -120.1 431.4 -60.1 432.7 0L0 0Z" fill="#d2edee"></path><path d="M0 -216.3C21.6 -192 43.1 -167.6 63.9 -154.3C84.7 -140.9 104.8 -138.6 129.8 -129.8C154.7 -120.9 184.6 -105.5 199.9 -82.8C215.1 -60.1 215.7 -30 216.3 0L0 0Z" fill="#a4dade"></path></g></svg>